{"glyphs":{"\u0000":{"ha":0,"x_min":0,"x_max":0,"o":""},"\r":{"ha":190,"x_min":0,"x_max":0,"o":""}," ":{"ha":190,"x_min":0,"x_max":0,"o":""},"e":{"ha":565,"x_min":0,"x_max":0,"o":"m 276 108 b 524 236 385 108 479 160 b 454 268 551 285 472 299 b 321 249 435 233 376 228 b 532 400 354 318 532 294 b 276 572 532 482 418 572 b 0 340 124 572 0 468 b 276 108 0 211 124 108 z m 329 475 b 265 282 329 431 272 347 b 206 408 231 310 206 353 b 329 475 206 522 329 526 z "},"f":{"ha":383,"x_min":0,"x_max":0,"o":"m 58 456 l 69 456 l 69 397 b 28 190 69 303 28 267 b 163 108 28 129 74 108 b 299 190 251 108 299 129 b 256 397 299 267 256 303 l 256 456 l 300 456 b 358 514 333 456 358 482 b 300 572 358 546 333 572 l 260 572 b 342 751 268 653 293 751 b 403 656 376 751 394 731 b 633 688 415 551 669 582 b 372 822 607 768 478 822 b 74 572 232 822 100 738 l 58 572 b 0 514 26 572 0 546 b 58 456 0 482 26 456 z "},"g":{"ha":676,"x_min":0,"x_max":0,"o":"m 0 378 b 104 235 0 321 40 269 b 199 78 17 169 32 78 b 411 82 331 78 369 99 b 301 -72 458 63 382 -54 b 235 8 256 -82 246 -42 b -8 -17 214 99 -37 88 b 303 -142 17 -104 143 -142 b 660 71 454 -142 685 -57 b 181 163 617 288 203 104 b 214 194 176 174 192 185 b 315 183 246 188 279 183 b 631 378 490 183 631 271 b 549 510 631 429 600 475 b 618 583 546 529 553 547 b 513 696 706 631 607 747 b 446 556 457 667 440 608 b 315 572 406 567 363 572 b 0 378 142 572 0 486 z m 315 503 b 394 378 360 503 394 447 b 315 254 394 310 360 254 b 236 378 272 254 236 310 b 315 503 236 447 272 503 z "},"h":{"ha":700,"x_min":0,"x_max":0,"o":"m 531 108 b 665 190 619 108 665 129 b 624 397 665 267 624 303 b 379 572 618 519 501 572 b 229 535 322 572 269 561 b 271 739 229 628 271 663 b 136 822 271 800 224 822 b 0 739 47 822 0 800 b 42 532 0 663 42 626 l 42 397 b 0 190 42 303 0 267 b 136 108 0 129 47 108 b 271 190 224 108 271 129 b 236 333 271 247 249 281 l 231 361 b 329 503 225 433 272 503 b 438 390 394 503 436 449 b 394 190 435 301 394 265 b 531 108 394 129 442 108 z "},"i":{"ha":318,"x_min":0,"x_max":0,"o":"m 4 449 b 57 321 4 396 57 381 b 14 190 57 239 14 244 b 150 108 14 129 61 108 b 286 190 239 108 286 129 b 243 350 286 250 243 257 b 286 511 243 439 286 456 b 4 449 286 644 4 531 z m 157 601 b 242 732 222 631 260 689 b 89 758 222 775 154 788 b 4 629 24 731 -14 672 b 157 601 24 586 92 574 z "},"j":{"ha":325,"x_min":0,"x_max":0,"o":"m -293 -12 b -25 -142 -293 -96 -154 -142 b 257 103 119 -142 257 -57 l 257 350 b 299 511 257 439 299 456 b 0 449 299 644 0 531 b 53 321 0 396 43 379 b -11 -72 75 190 65 -72 b -37 3 -37 -72 -37 -42 b -293 -12 -37 131 -293 119 z m 181 601 b 264 732 246 631 283 689 b 113 758 246 775 178 788 b 28 629 47 731 10 672 b 181 601 47 586 115 574 z "},"k":{"ha":660,"x_min":0,"x_max":0,"o":"m 0 190 b 136 108 0 129 47 108 b 271 190 224 108 271 129 b 247 296 271 232 258 263 l 265 311 b 317 183 286 264 288 225 b 479 108 358 125 390 108 b 625 242 568 108 664 179 b 439 397 581 313 490 319 l 424 419 b 574 482 482 440 528 438 b 493 572 621 531 560 572 b 351 526 440 572 389 565 b 256 393 313 486 331 454 l 231 372 b 229 397 229 381 229 389 l 229 532 b 271 739 229 626 271 663 b 136 822 271 800 224 822 b 0 739 47 822 0 800 b 42 532 0 663 42 626 l 42 397 b 0 190 42 303 0 267 z "},"l":{"ha":301,"x_min":0,"x_max":0,"o":"m 0 190 b 136 108 0 129 47 108 b 271 190 224 108 271 129 b 229 397 271 267 229 303 l 229 532 b 271 739 229 626 271 663 b 136 822 271 800 224 822 b 0 739 47 822 0 800 b 42 532 0 663 42 626 l 42 397 b 0 190 42 303 0 267 z "},"m":{"ha":965,"x_min":0,"x_max":0,"o":"m 10 190 b 146 108 10 129 57 108 b 282 190 235 108 282 129 b 275 228 282 206 279 217 b 268 243 272 233 271 239 b 335 503 228 344 272 503 b 376 390 372 503 376 449 b 335 190 375 301 335 265 b 471 108 335 129 382 108 b 606 190 558 108 606 129 b 596 256 606 215 601 236 b 660 503 572 369 599 503 b 701 390 697 503 701 449 b 660 190 700 301 660 265 b 796 108 660 129 707 108 b 931 190 883 108 931 129 b 889 397 931 267 889 303 b 707 572 889 503 828 572 b 547 483 629 572 578 539 b 382 572 521 539 465 572 b 275 543 338 572 303 561 b 0 449 231 624 0 524 b 53 321 0 396 53 381 b 10 190 53 239 10 244 z "},"n":{"ha":676,"x_min":0,"x_max":0,"o":"m 590 390 l 590 397 b 389 572 590 503 511 572 b 275 542 346 572 307 561 b 0 449 232 624 0 524 b 53 321 0 396 53 381 b 10 190 53 239 10 244 b 146 108 10 129 57 108 b 282 190 235 108 282 129 b 239 350 282 250 239 257 l 239 358 b 340 503 239 433 293 503 b 403 390 378 503 403 449 b 361 190 403 301 361 265 b 497 108 361 129 408 108 b 632 190 585 108 632 129 b 590 390 632 265 592 301 z "},"o":{"ha":583,"x_min":0,"x_max":0,"o":"m 276 108 b 553 340 429 108 553 211 b 276 572 553 468 429 572 b 0 340 124 572 0 468 b 276 108 0 211 124 108 z m 276 503 b 333 340 308 503 333 429 b 276 178 333 250 308 178 b 221 340 246 178 221 250 b 276 503 221 429 246 503 z "},"p":{"ha":689,"x_min":0,"x_max":0,"o":"m 0 -60 b 136 -142 0 -119 47 -142 b 271 -60 224 -142 271 -119 b 229 149 271 18 229 54 l 229 161 b 394 108 274 128 331 108 b 653 340 536 108 653 211 b 394 572 653 468 536 572 b 257 538 343 572 296 560 b 136 572 236 563 196 572 b 0 490 47 572 0 551 b 42 283 0 413 42 378 l 42 149 b 0 -60 42 54 0 18 z m 326 492 b 424 340 381 492 424 424 b 326 189 424 257 381 189 b 229 340 272 189 229 257 b 326 492 229 424 272 492 z "},"q":{"ha":686,"x_min":0,"x_max":0,"o":"m 258 108 b 424 161 321 108 379 128 l 424 149 b 381 -60 424 54 381 18 b 517 -142 381 -119 428 -142 b 653 -60 606 -142 653 -119 b 610 149 653 18 610 54 l 610 283 b 653 490 610 378 653 413 b 517 572 653 551 606 572 b 396 538 457 572 415 563 b 258 572 356 560 308 572 b 0 340 115 572 0 468 b 258 108 0 211 115 108 z m 325 492 b 424 340 379 492 424 424 b 325 189 424 257 379 189 b 228 340 272 189 228 257 b 325 492 228 424 272 492 z "},"r":{"ha":583,"x_min":0,"x_max":0,"o":"m 10 190 b 146 108 10 129 57 108 b 282 190 235 108 282 129 b 239 350 282 250 239 257 b 275 429 239 378 247 429 b 436 344 318 429 375 344 b 547 456 485 344 533 385 b 471 572 558 513 528 572 b 281 500 389 572 340 510 b 282 511 281 503 282 507 b 0 449 282 644 0 531 b 53 321 0 396 53 381 b 10 190 53 239 10 244 z "},"s":{"ha":535,"x_min":0,"x_max":0,"o":"m 42 340 b 289 203 122 275 289 242 b 168 226 289 169 238 163 b 4 204 122 271 -15 268 b 253 108 24 142 153 108 b 463 340 454 108 567 250 b 215 478 386 406 214 438 b 335 453 215 511 267 518 b 499 476 382 410 519 413 b 250 572 481 539 350 572 b 42 340 50 572 -67 426 z "},"t":{"ha":453,"x_min":0,"x_max":0,"o":"m 58 456 l 78 456 l 78 253 b 240 108 78 153 167 108 b 417 188 299 108 381 125 b 363 244 450 242 393 258 b 275 290 288 208 275 243 l 275 456 l 347 456 b 406 514 379 456 406 482 b 347 572 406 546 379 572 l 306 572 b 318 622 313 588 318 603 b 244 683 318 667 286 683 b 78 572 174 683 114 572 l 58 572 b 0 514 26 572 0 546 b 58 456 0 482 26 456 z "},"u":{"ha":664,"x_min":0,"x_max":0,"o":"m 54 397 l 54 283 b 244 108 54 176 122 108 b 396 181 313 108 358 135 b 504 108 413 135 454 108 b 626 197 557 108 626 146 b 575 290 626 240 575 243 l 575 492 b 482 572 575 536 547 572 b 335 508 450 572 335 561 b 367 453 335 481 351 469 b 293 178 419 363 369 178 b 242 290 256 178 242 231 l 242 492 b 147 572 242 536 214 572 b 0 508 115 572 0 561 b 54 397 0 460 54 461 z "},"v":{"ha":629,"x_min":0,"x_max":0,"o":"m 153 283 l 221 154 b 361 154 249 96 324 89 l 444 308 b 589 490 496 403 557 433 b 531 572 611 532 585 572 b 415 501 478 572 443 551 b 365 308 378 432 415 403 l 364 306 b 306 490 326 386 336 436 b 142 572 276 543 231 572 b 7 475 54 572 -25 536 b 153 283 49 397 103 378 z "},"w":{"ha":967,"x_min":0,"x_max":0,"o":"m 153 283 l 221 154 b 361 154 249 96 324 89 l 444 308 b 463 338 450 319 456 329 b 497 283 474 322 486 304 l 564 154 b 706 154 592 96 667 89 l 789 308 b 933 490 839 403 901 433 b 875 572 956 532 928 572 b 758 501 822 572 786 551 b 708 308 721 432 760 403 l 708 306 b 650 490 671 386 679 436 b 486 572 621 543 575 572 b 351 475 397 572 319 536 b 400 408 367 447 383 428 b 365 308 396 382 389 353 l 364 306 b 306 490 326 386 336 436 b 142 572 276 543 231 572 b 7 475 54 572 -25 536 b 153 283 49 397 103 378 z "},"x":{"ha":578,"x_min":0,"x_max":0,"o":"m 529 219 b 397 339 483 278 442 285 l 397 340 b 538 501 442 414 499 442 b 479 572 561 538 535 572 b 367 501 424 572 386 538 b 346 439 354 481 350 460 b 317 490 339 456 331 474 b 126 572 274 543 219 572 b 17 467 35 572 -32 526 b 150 343 61 408 107 396 b 149 340 150 342 149 342 b 8 179 104 267 47 239 b 68 108 -15 143 13 108 b 181 179 124 108 160 143 b 201 249 193 201 197 224 b 233 190 210 228 218 208 b 424 108 276 138 331 108 b 529 219 515 108 578 158 z "},"y":{"ha":636,"x_min":0,"x_max":0,"o":"m 135 54 b -28 -40 46 108 -36 32 b 143 -142 -18 -114 67 -142 b 382 71 264 -142 328 -44 b 479 308 400 108 479 308 b 601 490 519 403 578 433 b 535 572 619 532 588 572 b 426 501 482 572 449 551 b 400 308 397 432 438 404 l 400 307 b 319 490 360 381 353 439 b 135 572 283 543 222 572 b 11 475 46 572 -29 536 b 167 272 63 397 97 368 b 267 25 232 182 303 78 b 135 54 235 -24 178 28 z "},"z":{"ha":578,"x_min":0,"x_max":0,"o":"m 85 379 b 256 503 169 379 206 503 b 246 438 296 503 274 465 l 144 340 l 51 251 b 101 108 -17 182 6 108 l 360 108 b 461 301 571 108 599 301 b 290 178 376 301 340 178 b 300 242 250 178 272 215 l 401 340 l 494 429 b 444 572 563 499 540 572 l 186 572 b 85 379 -26 572 -53 379 z "},"A":{"ha":775,"x_min":0,"x_max":0,"o":"m 115 108 b 261 174 201 108 254 132 b 196 308 271 228 190 260 l 428 308 b 442 190 429 269 425 238 b 615 108 463 129 526 108 b 740 190 704 108 761 129 b 624 397 713 267 657 303 l 576 532 b 368 822 543 626 501 822 b 240 749 310 822 261 801 b 207 560 213 681 233 633 l 138 372 b 4 194 110 293 24 257 b 115 108 -17 133 53 108 z m 278 557 b 363 532 297 604 329 638 l 417 378 l 214 378 z "},"B":{"ha":710,"x_min":0,"x_max":0,"o":"m 0 190 b 126 108 0 133 49 111 l 125 107 l 467 107 b 676 304 582 107 676 196 b 551 482 676 383 625 451 b 618 626 593 518 618 569 b 408 822 618 733 524 822 l 142 822 b 0 739 54 821 0 800 b 42 532 0 663 42 626 l 42 397 b 0 190 42 303 0 267 z m 246 429 l 332 429 b 472 304 410 429 472 374 b 332 178 472 235 410 178 b 246 250 285 178 246 200 z m 246 703 b 293 751 246 736 271 751 b 414 626 343 751 414 686 b 251 500 414 557 328 500 l 246 500 z "},"C":{"ha":764,"x_min":0,"x_max":0,"o":"m 396 108 b 718 258 529 108 644 168 b 665 303 753 301 703 340 b 260 725 433 82 104 606 b 483 686 319 772 425 761 b 607 490 538 618 506 490 b 638 758 729 490 778 721 b 396 822 581 775 508 822 b 0 465 176 822 0 663 b 396 108 0 268 176 108 z "},"D":{"ha":764,"x_min":0,"x_max":0,"o":"m 42 397 b 0 190 42 303 0 267 b 142 108 0 131 54 108 l 340 108 b 722 465 558 108 722 268 b 340 822 722 661 558 822 l 142 822 b 0 739 54 821 0 800 b 42 532 0 663 42 626 z m 246 244 l 246 685 b 304 751 246 721 268 751 b 471 465 399 751 471 588 b 304 178 471 343 399 178 b 246 244 268 178 246 208 z "},"E":{"ha":651,"x_min":0,"x_max":0,"o":"m 42 397 b 0 190 42 303 0 267 b 142 108 0 131 54 108 l 288 108 b 447 97 376 108 419 103 b 560 300 653 54 658 300 b 340 178 468 300 432 178 b 246 258 286 178 246 200 l 246 443 l 293 443 b 461 382 360 443 397 382 b 519 478 515 382 519 422 b 461 572 519 533 515 572 b 293 513 397 572 360 513 l 246 513 l 246 671 b 340 751 246 729 286 751 b 560 629 432 751 468 629 b 447 832 658 629 653 875 b 288 822 419 826 376 822 l 142 822 b 0 739 54 821 0 800 b 42 532 0 663 42 626 z "},"F":{"ha":544,"x_min":0,"x_max":0,"o":"m 0 190 b 144 108 0 129 56 108 b 289 190 233 108 289 129 b 246 397 289 267 246 303 l 246 443 l 283 443 b 451 382 350 443 388 382 b 508 478 506 382 508 422 b 451 572 508 533 506 572 b 283 513 388 572 350 513 l 246 513 l 246 671 b 340 751 246 729 286 751 b 560 629 432 751 468 629 b 447 832 658 629 653 875 b 288 822 419 826 376 822 l 142 822 b 0 739 54 821 0 800 b 42 532 0 663 42 626 l 42 397 b 0 190 42 303 0 267 z "},"G":{"ha":785,"x_min":0,"x_max":0,"o":"m 396 108 b 565 136 507 108 511 136 b 708 154 619 136 708 61 b 751 356 708 249 751 279 b 618 444 751 417 707 444 b 492 356 529 444 492 417 b 531 215 492 310 519 253 b 260 725 347 215 129 625 b 483 686 319 771 425 761 b 607 490 540 615 507 490 b 638 758 729 490 778 721 b 396 822 581 775 508 822 b 0 465 176 822 0 663 b 396 108 0 268 176 108 z "},"H":{"ha":764,"x_min":0,"x_max":0,"o":"m 0 190 b 144 108 0 129 56 108 b 289 190 233 108 289 129 b 246 397 289 267 246 303 l 246 429 l 486 429 l 486 397 b 443 190 486 303 443 267 b 588 108 443 129 499 108 b 732 190 676 108 732 129 b 690 397 732 267 690 303 l 690 532 b 732 739 690 626 732 663 b 588 822 732 800 676 822 b 443 739 499 822 443 800 b 486 532 443 663 486 626 l 486 500 l 246 500 l 246 532 b 289 739 246 626 289 663 b 144 822 289 800 233 822 b 0 739 56 822 0 800 b 42 532 0 663 42 626 l 42 397 b 0 190 42 303 0 267 z "},"I":{"ha":322,"x_min":0,"x_max":0,"o":"m 0 190 b 144 108 0 129 56 108 b 289 190 233 108 289 129 b 246 397 289 267 246 303 l 246 532 b 289 739 246 626 289 663 b 144 822 289 800 233 822 b 0 739 56 822 0 800 b 42 532 0 663 42 626 l 42 397 b 0 190 42 303 0 267 z "},"J":{"ha":619,"x_min":0,"x_max":0,"o":"m 296 108 b 575 307 458 108 575 185 l 575 532 b 618 739 575 626 618 663 b 474 822 618 800 561 822 b 329 739 385 822 329 800 b 371 532 329 663 371 626 l 371 346 b 282 178 371 254 339 178 b 267 431 214 178 343 381 b 7 346 200 475 44 454 b 296 108 -31 238 86 108 z "},"K":{"ha":717,"x_min":0,"x_max":0,"o":"m 0 190 b 144 108 0 129 56 108 b 289 190 233 108 289 129 b 247 386 289 264 247 300 b 438 350 247 514 438 503 b 394 190 438 311 394 250 b 539 108 394 129 450 108 b 683 190 628 108 683 129 b 642 350 683 250 642 299 b 397 540 642 479 525 557 b 642 708 478 613 579 653 b 569 822 706 765 669 822 b 386 751 476 822 421 793 b 317 557 346 701 389 631 l 246 504 l 246 532 b 289 740 246 626 289 663 b 144 822 289 800 233 822 b 0 740 56 822 0 800 b 42 532 0 663 42 626 l 42 397 b 0 190 42 303 0 267 z "},"L":{"ha":669,"x_min":0,"x_max":0,"o":"m 0 190 b 142 108 0 131 54 108 l 269 108 b 449 97 360 108 421 103 b 564 367 654 54 690 367 b 322 178 439 367 424 178 b 246 279 268 178 246 211 l 246 532 b 289 739 246 626 289 663 b 144 822 289 800 233 822 b 0 739 56 822 0 800 b 42 532 0 663 42 626 l 42 397 b 0 190 42 303 0 267 z "},"M":{"ha":971,"x_min":0,"x_max":0,"o":"m 107 108 b 228 179 171 108 224 128 b 167 397 233 249 160 303 l 185 638 l 363 182 b 468 182 390 108 440 108 l 651 651 l 671 397 b 643 190 678 303 638 267 b 797 108 649 129 708 108 b 936 190 886 108 940 129 b 878 397 929 267 885 303 l 868 532 b 894 739 860 626 900 663 b 753 822 889 800 840 822 b 604 721 664 822 625 771 l 488 411 b 376 710 488 411 404 642 b 236 822 347 781 321 822 l 150 822 l 150 821 b 78 750 104 818 82 797 b 106 557 72 681 113 651 l 94 397 b 0 179 88 303 6 249 b 107 108 -4 128 40 108 z "},"N":{"ha":769,"x_min":0,"x_max":0,"o":"m 0 179 b 118 108 0 128 54 108 b 236 179 192 108 236 128 b 153 383 236 249 153 290 l 153 557 b 154 581 153 565 153 572 b 244 465 154 579 222 494 b 604 108 339 329 488 108 l 646 108 b 735 179 699 108 735 128 b 692 372 735 249 692 278 l 692 546 b 775 750 692 640 775 681 b 657 822 775 801 721 822 b 539 750 583 822 539 801 b 622 546 539 681 622 640 l 622 372 b 621 350 622 364 622 357 b 532 465 624 346 556 431 b 171 822 436 600 288 822 l 129 822 b 40 750 76 822 40 801 b 83 557 40 681 83 651 l 83 383 b 0 179 83 290 0 249 z "},"O":{"ha":838,"x_min":0,"x_max":0,"o":"m 400 108 b 799 465 619 108 799 268 b 400 822 799 663 619 822 b 0 465 179 822 0 663 b 400 108 0 268 179 108 z m 400 751 b 539 465 476 751 539 624 b 400 178 539 306 476 178 b 260 465 322 178 260 306 b 400 751 260 624 322 751 z "},"P":{"ha":642,"x_min":0,"x_max":0,"o":"m 0 190 b 144 108 0 129 56 108 b 289 190 233 108 289 129 b 246 392 289 265 249 301 l 401 392 b 635 607 529 392 635 489 b 401 822 635 725 529 822 l 144 822 b 0 740 56 822 0 800 b 42 532 0 663 42 626 l 42 397 b 0 190 42 303 0 267 z m 246 715 b 318 749 246 746 281 760 b 429 607 385 729 429 674 b 318 465 429 543 383 485 b 246 499 281 454 246 468 z "},"Q":{"ha":835,"x_min":0,"x_max":0,"o":"m 218 147 b 142 126 194 147 169 142 b 168 57 93 101 118 32 b 590 -157 286 118 371 -157 b 664 69 797 -157 769 94 b 314 117 479 25 389 78 b 400 108 342 111 369 108 b 799 465 619 108 799 268 b 400 822 799 663 619 822 b 0 465 179 822 0 663 b 218 147 0 326 89 206 z m 400 751 b 539 465 476 751 539 624 b 400 178 539 306 476 178 b 260 465 322 178 260 306 b 400 751 260 624 322 751 z "},"R":{"ha":719,"x_min":0,"x_max":0,"o":"m 0 190 b 144 108 0 129 56 108 b 289 190 233 108 289 129 b 246 397 289 267 246 303 l 246 443 l 311 443 b 438 350 365 443 438 399 b 396 190 438 276 396 250 b 540 108 396 129 451 108 b 685 190 629 108 685 129 b 642 350 685 250 642 276 b 540 478 642 413 600 454 b 638 632 597 513 638 569 b 414 822 638 738 529 822 l 144 822 b 0 739 56 822 0 800 b 42 532 0 663 42 626 l 42 397 b 0 190 42 303 0 267 z m 415 632 b 276 513 415 569 350 513 l 246 513 l 246 753 l 276 753 b 415 632 350 753 415 694 z "},"S":{"ha":669,"x_min":0,"x_max":0,"o":"m 74 464 b 369 222 178 379 375 339 b 328 178 367 192 351 178 b 78 368 189 181 181 365 b 72 158 -8 369 -39 175 b 300 108 143 147 156 111 b 586 442 558 101 718 306 b 560 465 579 450 569 457 b 265 707 457 551 258 590 b 306 751 267 738 282 753 b 556 563 444 749 454 564 b 561 771 643 560 678 756 b 333 822 490 781 479 818 b 47 489 76 828 -85 624 z "},"T":{"ha":633,"x_min":0,"x_max":0,"o":"m 63 608 b 294 751 154 608 215 751 l 313 751 b 311 733 311 746 311 740 l 311 397 b 268 190 311 303 268 267 b 413 108 268 129 324 108 b 557 190 501 108 557 129 b 515 397 557 267 515 303 l 515 733 b 514 751 515 740 514 746 l 532 751 b 763 608 610 751 671 608 b 650 832 861 608 857 875 b 497 822 631 828 568 822 l 329 822 b 175 832 257 822 194 828 b 63 608 -32 875 -36 608 z "},"U":{"ha":814,"x_min":0,"x_max":0,"o":"m 42 390 b 346 108 42 199 156 108 b 533 179 432 108 493 133 b 633 108 540 133 564 108 b 778 196 725 108 778 128 b 735 397 778 264 735 301 l 735 532 b 778 739 735 626 778 663 b 633 822 778 800 721 822 b 489 739 544 822 489 800 b 531 532 489 663 531 626 l 531 392 b 389 178 531 264 472 178 b 246 392 304 178 246 267 l 246 532 b 289 739 246 626 289 663 b 144 822 289 800 233 822 b 0 739 56 822 0 800 b 42 532 0 663 42 626 z "},"V":{"ha":665,"x_min":0,"x_max":0,"o":"m 138 532 l 221 281 b 383 108 264 157 292 108 b 550 285 469 108 499 165 l 654 529 b 813 721 686 607 789 658 b 678 822 835 782 783 822 b 525 760 579 822 538 800 b 567 511 501 682 614 619 l 508 372 b 408 397 486 325 446 293 l 339 606 b 318 740 321 663 338 692 b 147 822 294 800 249 822 b 6 740 47 822 -19 800 b 138 532 36 663 107 629 z "},"W":{"ha":1024,"x_min":0,"x_max":0,"o":"m 132 532 l 211 281 b 367 108 253 157 279 108 b 528 285 450 108 478 165 l 558 363 l 585 281 b 740 108 625 157 651 108 b 900 285 822 108 850 165 l 999 529 b 1150 721 1029 607 1128 658 b 1022 822 1172 782 1122 822 b 875 760 928 822 888 800 b 915 511 853 682 961 619 l 858 372 b 764 397 839 325 800 293 l 697 606 b 678 740 679 663 696 692 b 514 822 654 800 611 822 b 378 740 418 822 354 800 b 504 532 408 663 475 629 l 525 468 l 486 372 b 392 397 465 325 426 293 l 325 606 b 304 740 307 663 324 692 b 142 822 281 800 238 822 b 4 740 44 822 -18 800 b 132 532 35 663 103 629 z "},"X":{"ha":733,"x_min":0,"x_max":0,"o":"m 222 465 l 190 401 b 8 210 150 322 38 272 b 142 108 -21 149 31 108 b 317 189 246 108 304 147 b 265 392 332 243 207 283 l 272 407 l 311 344 b 360 201 343 297 326 249 b 568 108 401 142 461 108 b 696 190 674 108 738 129 b 517 397 643 267 574 301 l 482 453 l 488 465 l 489 465 l 521 529 b 703 721 561 607 674 658 b 569 822 732 782 681 822 b 394 740 465 822 407 782 b 446 538 379 686 504 647 l 438 522 l 386 606 b 315 756 350 663 344 706 b 156 822 289 801 228 822 b 14 740 49 822 -28 800 b 194 532 67 663 138 629 l 229 476 z "},"Y":{"ha":589,"x_min":0,"x_max":0,"o":"m 189 514 l 269 374 b 228 190 263 296 228 260 b 372 108 228 129 283 108 b 517 190 461 108 517 129 b 475 374 517 261 482 296 l 564 529 b 747 721 608 607 714 658 b 638 822 779 782 738 822 b 476 751 544 822 492 793 b 489 539 457 697 540 628 b 449 469 489 539 469 504 l 372 606 b 322 740 340 663 353 692 b 128 822 285 800 224 822 b 11 722 32 822 -26 782 b 189 514 61 644 136 611 z "},"Z":{"ha":682,"x_min":0,"x_max":0,"o":"m 58 629 b 283 751 151 629 192 751 l 367 751 l 58 246 b 135 108 17 175 28 108 l 365 108 b 472 97 392 108 450 101 b 593 300 676 54 692 300 b 368 178 501 300 460 178 l 286 178 l 594 683 b 518 822 636 756 624 822 l 288 822 b 181 832 260 822 201 828 b 58 629 -24 875 -40 629 z "},"d":{"ha":689,"x_min":0,"x_max":0,"o":"m 258 108 b 396 143 308 108 356 121 b 517 108 415 118 457 108 b 653 190 606 108 653 129 b 610 397 653 267 610 303 l 610 532 b 653 739 610 626 653 663 b 517 822 653 800 606 822 b 381 739 428 822 381 800 b 424 532 381 663 424 626 l 424 519 b 258 572 379 553 321 572 b 0 340 115 572 0 468 b 258 108 0 211 115 108 z m 325 492 b 424 340 379 492 424 424 b 325 189 424 257 379 189 b 228 340 272 189 228 257 b 325 492 228 424 272 492 z "},"":{"ha":1036,"x_min":0,"x_max":0,"o":"m 882 374 l 947 529 b 749 918 1063 789 951 946 b 825 667 549 892 644 567 b 857 503 900 708 915 653 l 829 438 b 782 497 814 454 799 474 b 671 646 733 561 671 646 b 61 697 490 894 182 849 b 197 307 -61 543 7 307 b 304 544 300 307 368 439 b 118 644 243 643 90 567 b 429 576 135 689 268 744 l 363 383 b 208 179 331 290 233 249 b 308 108 190 128 244 108 b 451 179 382 108 433 128 b 439 383 475 249 407 290 l 483 511 b 521 457 496 494 508 476 b 638 229 622 300 594 300 b 863 108 697 128 774 108 b 953 283 950 108 1051 146 b 882 374 926 319 904 347 z "},"":{"ha":668,"x_min":0,"x_max":0,"o":"m 513 696 b 446 556 457 667 439 608 b 315 572 406 567 361 572 b 0 378 142 572 0 486 b 185 201 0 300 75 232 b 146 -142 -49 113 -29 -142 b 457 108 325 -142 307 108 b 419 58 501 108 442 72 b 536 -125 285 -26 425 -194 b 499 186 671 -42 664 186 b 244 96 375 186 289 74 b 363 186 208 114 256 172 b 381 189 369 186 375 188 l 382 189 b 631 378 524 207 631 285 b 549 510 631 429 600 475 b 618 583 546 529 553 547 b 513 696 706 631 607 747 z m 315 254 b 236 378 271 254 236 310 b 315 503 236 447 271 503 b 394 378 360 503 394 447 b 315 254 394 310 360 254 z "},"":{"ha":960,"x_min":0,"x_max":0,"o":"m 853 572 b 746 501 800 572 767 551 b 718 308 717 432 756 404 l 718 307 b 638 490 679 381 672 439 b 453 572 603 543 542 572 l 304 572 b 51 822 382 703 269 822 b -203 665 -143 822 -222 738 b 32 681 -169 542 78 572 b 67 751 21 707 21 751 b 78 572 101 751 157 682 l 58 572 b 0 514 26 572 0 546 b 58 456 0 482 26 456 l 78 456 l 78 253 b 240 108 78 153 168 108 b 418 188 300 108 381 125 b 364 244 450 242 393 258 b 276 290 288 208 276 243 l 276 456 l 343 456 b 486 272 388 392 422 360 b 586 25 551 182 621 78 b 453 54 553 -24 496 28 b 292 -40 364 108 283 32 b 463 -142 300 -114 386 -142 b 700 71 582 -142 646 -44 b 799 308 718 108 799 308 b 921 490 838 403 896 433 b 853 572 939 532 907 572 z "},"a":{"ha":624,"x_min":0,"x_max":0,"o":"m 207 108 b 369 158 282 108 333 131 b 467 108 390 126 426 108 b 590 197 521 108 590 146 b 539 290 590 240 539 243 l 539 374 b 281 572 539 496 394 572 b 42 461 181 572 22 547 b 163 410 51 417 115 394 b 264 503 219 431 207 503 b 349 383 310 503 339 451 b 1 228 229 440 -22 357 b 207 108 19 129 124 108 z m 353 307 l 353 256 b 225 254 303 211 238 190 b 353 307 218 299 260 349 z "},"b":{"ha":682,"x_min":0,"x_max":0,"o":"m 0 190 b 136 108 0 129 47 108 b 257 143 196 108 236 118 b 394 108 296 121 343 108 b 653 340 536 108 653 211 b 394 572 653 468 536 572 b 229 519 331 572 274 553 l 229 532 b 271 739 229 626 271 663 b 136 822 271 800 224 822 b 0 739 47 822 0 800 b 42 532 0 663 42 626 l 42 397 b 0 190 42 303 0 267 z m 326 492 b 424 340 381 492 424 424 b 326 189 424 257 381 189 b 229 340 272 189 229 257 b 326 492 229 424 272 492 z "},"c":{"ha":563,"x_min":0,"x_max":0,"o":"m 276 108 b 524 236 385 108 479 160 b 454 268 551 285 472 299 b 229 408 414 196 229 254 b 276 503 229 461 251 503 b 319 376 303 503 314 449 b 535 422 328 274 575 318 b 276 572 501 513 394 572 b 0 340 124 572 0 468 b 276 108 0 211 124 108 z "}}}
